<?xml version="1.0" encoding="UTF-8" standalone="no"?>
<svg
   width="300"
   viewBox="0 0 235.38462 81.680235"
   height="108.90698"
   xmlns="http://www.w3.org/2000/svg">
  <g
     id="g341"
     transform="matrix(2.5558155,0,0,2.5558155,-147.18902,-15.844222)">
    <g
       id="g340">
      <path
         fill="#4e4d4d"
         d="m 60.132812,34.363281 c 0.179688,-0.121093 0.417969,-0.183593 0.710938,-0.183593 0.320312,0 0.667969,0.07422 1.042969,0.21875 l 0.01953,0.0078 0.214844,-0.648438 -0.01563,-0.0078 c -0.425781,-0.167969 -0.84375,-0.253906 -1.238281,-0.253906 -0.5,0 -0.914063,0.128906 -1.234376,0.375 -0.320312,0.253906 -0.484374,0.578125 -0.484374,0.96875 0,0.492187 0.230468,0.867187 0.6875,1.113281 0.152343,0.08203 0.335937,0.152344 0.539062,0.207031 0.203125,0.05469 0.371094,0.09375 0.5,0.121094 0.125,0.02344 0.230469,0.07422 0.320312,0.148438 0.08984,0.07031 0.128907,0.167968 0.128907,0.292968 0,0.355469 -0.355469,0.539063 -1.054688,0.539063 h -0.558593 c -0.953126,0 -1.414063,-0.378907 -1.414063,-1.160157 0,-0.207031 0.03125,-0.433593 0.08984,-0.667968 l 0.0039,-0.02734 h -0.664063 l -0.0039,0.01563 C 57.636719,35.71875 57.59375,36 57.59375,36.261719 c 0,0.5625 0.199219,0.992187 0.59375,1.273437 0.394531,0.28125 0.90625,0.425782 1.523438,0.425782 h 0.558593 c 0.5625,0 1.003907,-0.109376 1.308594,-0.328126 0.3125,-0.21875 0.46875,-0.523437 0.46875,-0.910156 0,-0.1875 -0.03516,-0.351562 -0.101563,-0.492187 -0.06641,-0.144531 -0.164062,-0.257813 -0.292968,-0.347657 -0.125,-0.08594 -0.246094,-0.15625 -0.359375,-0.203124 -0.109375,-0.04688 -0.246094,-0.08984 -0.410157,-0.132813 -0.414062,-0.109375 -0.691406,-0.21875 -0.824218,-0.316406 -0.128906,-0.09766 -0.191406,-0.226563 -0.191406,-0.390625 0,-0.199219 0.08984,-0.359375 0.265624,-0.480469 z m 0,0"
         fill-opacity="1"
         fill-rule="nonzero"
         id="path303" />
      <path
         fill="#4e4d4d"
         d="m 59.296875,38.410156 c -0.109375,0 -0.207031,0.03906 -0.289063,0.117188 -0.07812,0.07813 -0.121093,0.175781 -0.121093,0.289062 0,0.113282 0.04297,0.214844 0.121093,0.292969 0.08203,0.07813 0.179688,0.117187 0.289063,0.117187 0.109375,0 0.207031,-0.03906 0.285156,-0.117187 0.08203,-0.08203 0.121094,-0.179687 0.121094,-0.292969 0,-0.113281 -0.03906,-0.210937 -0.121094,-0.289062 -0.07813,-0.07813 -0.175781,-0.117188 -0.285156,-0.117188 z m 0,0"
         fill-opacity="1"
         fill-rule="nonzero"
         id="path304" />
      <path
         fill="#4e4d4d"
         d="m 60.308594,38.410156 c -0.109375,0 -0.203125,0.03906 -0.285156,0.117188 -0.07813,0.07813 -0.121094,0.175781 -0.121094,0.289062 0,0.113282 0.04297,0.214844 0.121094,0.292969 0.08203,0.07813 0.175781,0.117187 0.285156,0.117187 0.113281,0 0.207031,-0.03906 0.289062,-0.117187 0.07813,-0.07813 0.121094,-0.179687 0.121094,-0.292969 0,-0.113281 -0.04297,-0.210937 -0.121094,-0.289062 -0.08203,-0.07813 -0.175781,-0.117188 -0.289062,-0.117188 z m 0,0"
         fill-opacity="1"
         fill-rule="nonzero"
         id="path305" />
      <path
         fill="#4e4d4d"
         d="M 65.097656,33.933594 C 64.714844,33.640625 64.179688,33.492188 63.515625,33.492188 H 63.15625 v 0.722656 h 0.347656 c 0.503906,0 0.875,0.07813 1.109375,0.234375 0.230469,0.15625 0.34375,0.394531 0.34375,0.707031 0,0.257812 -0.05859,0.441406 -0.183593,0.546875 -0.121094,0.105469 -0.335938,0.160156 -0.632813,0.160156 h -1.300781 v 0.703125 h 1.304687 c 0.496094,0 0.878907,-0.121094 1.140625,-0.363281 0.261719,-0.242187 0.394532,-0.601563 0.394532,-1.0625 0,-0.507813 -0.195313,-0.914063 -0.582032,-1.207031 z m 0,0"
         fill-opacity="1"
         fill-rule="nonzero"
         id="path306" />
      <path
         fill="#4e4d4d"
         d="m 81.003906,32.394531 v 2.683594 c 0,0.269531 -0.0625,0.472656 -0.183594,0.597656 -0.125,0.125 -0.320312,0.1875 -0.585937,0.1875 -0.285156,0 -0.5,-0.0625 -0.625,-0.183593 -0.128906,-0.125 -0.191406,-0.328126 -0.191406,-0.601563 v -1.585937 h -0.722657 v 1.585937 c 0,0.527344 -0.175781,0.785156 -0.542968,0.785156 -0.398438,0 -0.59375,-0.257812 -0.59375,-0.785156 v -1.402344 h -0.722656 v 1.402344 c 0,0.527344 -0.175782,0.785156 -0.542969,0.785156 -0.398438,0 -0.59375,-0.257812 -0.59375,-0.785156 v -1.402344 h -0.71875 v 1.402344 c 0,0.269531 -0.0625,0.46875 -0.1875,0.59375 -0.121094,0.128906 -0.316407,0.191406 -0.582031,0.191406 H 73.15625 l 0.640625,-0.582031 0.0078,-0.0039 0.0039,-0.199219 c 0,-0.453125 -0.15625,-0.832031 -0.46875,-1.132813 -0.308594,-0.300781 -0.699219,-0.453124 -1.15625,-0.453124 -0.457032,0 -0.839844,0.152343 -1.148438,0.453124 -0.3125,0.300782 -0.46875,0.679688 -0.46875,1.132813 v 0.199219 l 0.648438,0.585937 h -1.894532 v -0.667969 c 0,-0.515624 -0.136718,-0.933593 -0.410156,-1.238281 -0.269531,-0.308593 -0.621094,-0.46875 -1.042968,-0.46875 -0.449219,0 -0.8125,0.160157 -1.078126,0.46875 -0.265624,0.3125 -0.398437,0.679688 -0.398437,1.097657 0,0.414062 0.128906,0.765624 0.386719,1.0625 0.257812,0.296874 0.621094,0.449218 1.082031,0.449218 h 0.699219 c -0.125,0.441406 -0.480469,0.664063 -1.050782,0.664063 -0.160156,0 -0.328124,-0.01563 -0.496093,-0.03906 l -0.02344,-0.0039 v 0.691406 l 0.01563,0.0039 c 0.238282,0.04688 0.457032,0.06641 0.65625,0.06641 0.457032,0 0.832032,-0.121094 1.113282,-0.359375 0.28125,-0.234375 0.453124,-0.578125 0.519531,-1.023438 h 2.316406 c 0.109375,0 0.207031,-0.02344 0.296875,-0.07422 0.08594,-0.04688 0.144531,-0.08984 0.175781,-0.128907 0.02734,-0.03125 0.0625,-0.07813 0.101563,-0.132812 0.04297,0.05859 0.07813,0.101562 0.105468,0.132812 0.03125,0.03906 0.08984,0.08203 0.175782,0.128907 0.08594,0.05078 0.183594,0.07422 0.292968,0.07422 h 1.453126 c 0.515624,0 0.914062,-0.167968 1.179687,-0.492187 0.183594,0.324219 0.488281,0.492187 0.902344,0.492187 0.414062,0 0.742187,-0.15625 0.96875,-0.464844 0.1875,0.308594 0.488281,0.464844 0.890625,0.464844 0.402344,0 0.753906,-0.164062 0.980468,-0.480468 0.214844,0.316406 0.585938,0.480468 1.105469,0.480468 0.460938,0 0.828125,-0.136718 1.089844,-0.398437 0.265625,-0.261719 0.398437,-0.632813 0.398437,-1.09375 V 32.390637 H 81.00389 Z m -12.394531,3.46875 h -0.742187 c -0.242188,0 -0.433594,-0.08203 -0.574219,-0.246093 -0.144531,-0.164063 -0.214844,-0.359376 -0.214844,-0.578126 0,-0.21875 0.07031,-0.414062 0.210937,-0.578124 0.140626,-0.164063 0.332032,-0.246094 0.566407,-0.246094 0.214843,0 0.394531,0.08203 0.539062,0.25 0.140625,0.164062 0.214844,0.40625 0.214844,0.714844 z m 3.574219,0.02734 -0.902344,-0.832031 c 0.01563,-0.25 0.109375,-0.453125 0.273438,-0.609375 0.167968,-0.15625 0.378906,-0.234375 0.628906,-0.234375 0.25,0 0.460937,0.07813 0.628906,0.234375 0.164062,0.15625 0.257812,0.359375 0.273438,0.609375 z m 0,0"
         fill-opacity="1"
         fill-rule="nonzero"
         id="path307" />
      <path
         fill="#4e4d4d"
         d="m 82.453125,32.394531 h 0.71875 v 4.171875 h -0.71875 z m 0,0"
         fill-opacity="1"
         fill-rule="nonzero"
         id="path308" />
      <path
         fill="#4e4d4d"
         d="m 87.15625,33 c 0.113281,0 0.210938,-0.03906 0.289062,-0.121094 0.07813,-0.07813 0.117188,-0.175781 0.117188,-0.285156 0,-0.113281 -0.03906,-0.207031 -0.117188,-0.289062 -0.07812,-0.07813 -0.175781,-0.121094 -0.289062,-0.121094 -0.113281,0 -0.210938,0.04297 -0.289062,0.121094 -0.07813,0.08203 -0.117188,0.179687 -0.117188,0.289062 0,0.109375 0.03906,0.207031 0.117188,0.285156 C 86.945312,32.960938 87.042969,33 87.15625,33 Z m 0,0"
         fill-opacity="1"
         fill-rule="nonzero"
         id="path309" />
      <path
         fill="#4e4d4d"
         d="m 86.144531,33 c 0.113281,0 0.210938,-0.03906 0.289063,-0.121094 0.07813,-0.07813 0.117187,-0.175781 0.117187,-0.285156 0,-0.109375 -0.03906,-0.207031 -0.117187,-0.289062 -0.07813,-0.07813 -0.175782,-0.121094 -0.289063,-0.121094 -0.117187,0 -0.214843,0.04297 -0.292969,0.121094 -0.07812,0.08203 -0.117187,0.179687 -0.117187,0.289062 0,0.109375 0.03906,0.207031 0.117187,0.285156 C 85.933594,32.960938 86.03125,33 86.144531,33 Z m 0,0"
         fill-opacity="1"
         fill-rule="nonzero"
         id="path310" />
      <path
         fill="#4e4d4d"
         d="m 89.347656,37.03125 c -0.109375,0 -0.207031,0.03906 -0.285156,0.121094 -0.08203,0.07813 -0.125,0.175781 -0.125,0.285156 0,0.109375 0.04297,0.207031 0.125,0.285156 0.07813,0.08203 0.175781,0.121094 0.285156,0.121094 0.109375,0 0.207032,-0.03906 0.285156,-0.121094 0.08203,-0.07813 0.121094,-0.175781 0.121094,-0.285156 0,-0.109375 -0.03906,-0.207031 -0.121094,-0.285156 -0.07812,-0.08203 -0.175781,-0.121094 -0.285156,-0.121094 z m 0,0"
         fill-opacity="1"
         fill-rule="nonzero"
         id="path311" />
      <path
         fill="#4e4d4d"
         d="m 90.359375,37.03125 c -0.109375,0 -0.207031,0.03906 -0.285156,0.121094 -0.08203,0.07813 -0.121094,0.175781 -0.121094,0.285156 0,0.109375 0.03906,0.207031 0.121094,0.285156 0.07813,0.08203 0.175781,0.121094 0.285156,0.121094 0.109375,0 0.207031,-0.03906 0.289063,-0.121094 0.07812,-0.07813 0.121093,-0.175781 0.121093,-0.285156 0,-0.109375 -0.04297,-0.207031 -0.121093,-0.285156 -0.08203,-0.08203 -0.179688,-0.121094 -0.289063,-0.121094 z m 0,0"
         fill-opacity="1"
         fill-rule="nonzero"
         id="path312" />
      <path
         fill="#4e4d4d"
         d="m 92.859375,35.863281 c -0.335937,0 -0.589844,-0.06641 -0.753906,-0.195312 -0.15625,-0.128907 -0.238281,-0.335938 -0.238281,-0.613281 0,-0.277344 0.09375,-0.480469 0.277343,-0.636719 0.183594,-0.15625 0.425781,-0.234375 0.722657,-0.234375 0.25,0 0.546874,0.06641 0.875,0.195312 l 0.01953,0.0078 0.246093,-0.636719 -0.01953,-0.0078 C 93.5625,33.570312 93.179688,33.484375 92.84375,33.484375 c -0.488281,0 -0.894531,0.144531 -1.214844,0.425781 -0.320312,0.28125 -0.484375,0.660156 -0.484375,1.121094 0,0.375 0.121094,0.652344 0.359375,0.832031 h -0.46875 c -0.289062,0 -0.5,-0.0625 -0.628906,-0.1875 -0.125,-0.121093 -0.1875,-0.324219 -0.1875,-0.597656 v -1.199219 h -0.722656 v 1.199219 c 0,0.269531 -0.0625,0.46875 -0.1875,0.59375 -0.121094,0.125 -0.316406,0.1875 -0.582032,0.1875 -0.261718,0 -0.457031,-0.0625 -0.578124,-0.1875 -0.121094,-0.125 -0.183594,-0.324219 -0.183594,-0.59375 v -1.839844 h -0.71875 v 0.289063 c -0.144532,-0.01563 -0.269532,-0.02344 -0.375,-0.02344 -0.535156,0 -0.980469,0.136719 -1.324219,0.414063 -0.347656,0.277343 -0.523437,0.675781 -0.523437,1.183593 0,0.367188 0.121093,0.6875 0.359374,0.953126 0.234376,0.265624 0.550782,0.398437 0.929688,0.398437 0.515625,0 0.871094,-0.230469 1.058594,-0.679687 0.101562,0.242187 0.269531,0.4375 0.492187,0.574218 0.238281,0.148438 0.527344,0.222656 0.863281,0.222656 0.527344,0 0.925782,-0.171874 1.1875,-0.503906 0.210938,0.332032 0.589844,0.503906 1.121094,0.503906 h 3.058594 v -0.707031 z m -5.617187,-1.128906 c 0,0.308594 -0.07422,0.5625 -0.222657,0.746094 -0.148437,0.1875 -0.347656,0.28125 -0.59375,0.28125 -0.214843,0 -0.382812,-0.06641 -0.503906,-0.195313 -0.125,-0.132812 -0.1875,-0.292968 -0.1875,-0.480468 0,-0.28125 0.109375,-0.507813 0.320313,-0.664063 0.214843,-0.160156 0.496093,-0.242187 0.832031,-0.242187 0.113281,0 0.234375,0.0078 0.355469,0.03125 z m 0,0"
         fill-opacity="1"
         fill-rule="nonzero"
         id="path313" />
      <path
         fill="#4e4d4d"
         d="m 98.0625,33.476562 c 0.109375,0 0.207031,-0.04297 0.285156,-0.121093 0.08203,-0.08203 0.121094,-0.179688 0.121094,-0.289063 0,-0.109375 -0.03906,-0.207031 -0.121094,-0.285156 -0.07813,-0.08203 -0.175781,-0.121094 -0.285156,-0.121094 -0.109375,0 -0.207031,0.03906 -0.289062,0.121094 -0.07813,0.07813 -0.121094,0.175781 -0.121094,0.285156 0,0.109375 0.04297,0.207032 0.121094,0.289063 0.08203,0.07813 0.179687,0.121093 0.289062,0.121093 z m 0,0"
         fill-opacity="1"
         fill-rule="nonzero"
         id="path314" />
      <path
         fill="#4e4d4d"
         d="m 105.41797,32.394531 v 2.683594 c 0,0.269531 -0.0625,0.472656 -0.18359,0.597656 -0.125,0.125 -0.32032,0.1875 -0.58594,0.1875 -0.26172,0 -0.46485,-0.05469 -0.59375,-0.160156 -0.125,-0.105469 -0.19922,-0.273437 -0.21875,-0.503906 v -0.06641 c 0,-0.464843 -0.17969,-0.859374 -0.53516,-1.167968 -0.35547,-0.3125 -0.79297,-0.46875 -1.29687,-0.46875 -0.40235,0 -0.75391,0.08984 -1.04688,0.265625 -0.26953,0.160156 -0.48437,0.390625 -0.64062,0.679687 v -0.949218 h -0.714848 v 2.371093 h -0.355468 c -0.289063,0 -0.503906,-0.0625 -0.628906,-0.1875 -0.125,-0.121093 -0.191407,-0.324219 -0.191407,-0.597656 v -1.199219 h -0.722656 v 1.199219 c 0,0.269531 -0.0625,0.46875 -0.183594,0.59375 -0.125,0.125 -0.320312,0.1875 -0.582031,0.1875 h -0.628906 c -0.261719,0 -0.457032,-0.0625 -0.578125,-0.1875 -0.125,-0.128906 -0.183594,-0.328125 -0.183594,-0.59375 v -2.6875 h -0.722656 v 2.6875 c 0,0.457031 0.132812,0.828125 0.394531,1.089844 0.261719,0.265625 0.625,0.398437 1.085938,0.398437 h 0.628906 c 0.527344,0 0.925781,-0.167968 1.1875,-0.503906 0.210937,0.335938 0.589844,0.503906 1.121094,0.503906 h 3.105472 c 0.51953,0 0.92187,-0.164062 1.1914,-0.492187 0.20703,0.328125 0.58203,0.492187 1.10938,0.492187 0.46094,0 0.82812,-0.132812 1.09375,-0.398437 0.26172,-0.261719 0.39844,-0.628907 0.39844,-1.089844 v -2.6875 h -0.72266 z m -2.48828,3.289063 c -0.1211,0.121094 -0.32031,0.179687 -0.58203,0.179687 h -2.03516 v -0.121093 c 0.0156,-0.421876 0.1875,-0.785157 0.51953,-1.082032 0.33203,-0.292968 0.72656,-0.441406 1.17188,-0.441406 0.32422,0 0.59375,0.08594 0.80078,0.253906 0.20703,0.167969 0.3125,0.390625 0.3125,0.664063 0,0.242187 -0.0625,0.429687 -0.1875,0.546875 z m 0,0"
         fill-opacity="1"
         fill-rule="nonzero"
         id="path315" />
      <path
         fill="#4e4d4d"
         d="m 106.86719,32.394531 h 0.71875 v 4.171875 h -0.71875 z m 0,0"
         fill-opacity="1"
         fill-rule="nonzero"
         id="path316" />
      <path
         fill="#4e4d4d"
         d="m 111.57031,33 c 0.11328,0 0.21094,-0.03906 0.28907,-0.121094 0.0781,-0.07813 0.11718,-0.175781 0.11718,-0.285156 0,-0.113281 -0.0391,-0.207031 -0.11718,-0.289062 -0.0781,-0.07813 -0.17579,-0.121094 -0.28907,-0.121094 -0.11328,0 -0.21093,0.04297 -0.28906,0.121094 -0.0781,0.08203 -0.11719,0.179687 -0.11719,0.289062 0,0.109375 0.0391,0.207031 0.11719,0.285156 C 111.35938,32.960938 111.45703,33 111.57031,33 Z m 0,0"
         fill-opacity="1"
         fill-rule="nonzero"
         id="path317" />
      <path
         fill="#4e4d4d"
         d="m 110.55859,33 c 0.11329,0 0.21094,-0.03906 0.28907,-0.121094 0.0781,-0.07813 0.11718,-0.175781 0.11718,-0.285156 0,-0.109375 -0.0391,-0.207031 -0.11718,-0.289062 -0.0781,-0.07813 -0.17578,-0.121094 -0.28907,-0.121094 -0.11718,0 -0.21484,0.04297 -0.29296,0.121094 -0.0781,0.08203 -0.11719,0.179687 -0.11719,0.289062 0,0.109375 0.0391,0.207031 0.11719,0.285156 C 110.34375,32.960938 110.44531,33 110.55859,33 Z m 0,0"
         fill-opacity="1"
         fill-rule="nonzero"
         id="path318" />
      <path
         fill="#4e4d4d"
         d="m 113.76172,37.03125 c -0.10938,0 -0.20703,0.03906 -0.28906,0.121094 -0.0781,0.07813 -0.1211,0.175781 -0.1211,0.285156 0,0.109375 0.043,0.207031 0.1211,0.285156 0.082,0.08203 0.17968,0.121094 0.28906,0.121094 0.10937,0 0.20703,-0.03906 0.28516,-0.121094 0.082,-0.07813 0.12109,-0.175781 0.12109,-0.285156 0,-0.109375 -0.0391,-0.207031 -0.12109,-0.285156 -0.0781,-0.08203 -0.17579,-0.121094 -0.28516,-0.121094 z m 0,0"
         fill-opacity="1"
         fill-rule="nonzero"
         id="path319" />
      <path
         fill="#4e4d4d"
         d="m 114.77344,37.03125 c -0.10938,0 -0.20703,0.03906 -0.28516,0.121094 -0.082,0.07813 -0.12109,0.175781 -0.12109,0.285156 0,0.109375 0.0391,0.207031 0.12109,0.285156 0.0781,0.08203 0.17578,0.121094 0.28516,0.121094 0.10937,0 0.20703,-0.03906 0.28906,-0.121094 0.0781,-0.07813 0.12109,-0.175781 0.12109,-0.285156 0,-0.109375 -0.043,-0.207031 -0.12109,-0.285156 -0.082,-0.08203 -0.17969,-0.121094 -0.28906,-0.121094 z m 0,0"
         fill-opacity="1"
         fill-rule="nonzero"
         id="path320" />
      <path
         fill="#4e4d4d"
         d="m 121.39844,33.476562 c 0.10937,0 0.20703,-0.04297 0.28515,-0.121093 0.082,-0.08203 0.1211,-0.179688 0.1211,-0.289063 0,-0.109375 -0.0391,-0.207031 -0.1211,-0.285156 -0.0781,-0.08203 -0.17578,-0.121094 -0.28515,-0.121094 -0.10938,0 -0.20703,0.03906 -0.28906,0.121094 -0.0781,0.07813 -0.1211,0.175781 -0.1211,0.285156 0,0.109375 0.043,0.207032 0.1211,0.289063 0.082,0.07813 0.17968,0.121093 0.28906,0.121093 z m 0,0"
         fill-opacity="1"
         fill-rule="nonzero"
         id="path321" />
      <path
         fill="#4e4d4d"
         d="m 124.23047,33.46875 c 0.11328,0 0.21094,-0.03906 0.28906,-0.117188 0.0781,-0.07812 0.11719,-0.175781 0.11719,-0.289062 0,-0.117188 -0.0391,-0.214844 -0.11719,-0.292969 -0.0781,-0.07813 -0.17578,-0.117187 -0.28906,-0.117187 -0.11328,0 -0.21094,0.03906 -0.28906,0.117187 -0.082,0.07813 -0.1211,0.179688 -0.1211,0.292969 0,0.113281 0.043,0.210938 0.1211,0.289062 0.0781,0.07813 0.17578,0.117188 0.28906,0.117188 z m 0,0"
         fill-opacity="1"
         fill-rule="nonzero"
         id="path322" />
      <path
         fill="#4e4d4d"
         d="m 123.21484,33.46875 c 0.11329,0 0.21094,-0.03906 0.28907,-0.117188 0.0781,-0.07812 0.12109,-0.175781 0.12109,-0.289062 0,-0.117188 -0.043,-0.214844 -0.12109,-0.292969 -0.0781,-0.07813 -0.17578,-0.117187 -0.28907,-0.117187 -0.11328,0 -0.21093,0.03906 -0.28906,0.117187 -0.0781,0.07813 -0.11719,0.179688 -0.11719,0.292969 0,0.113281 0.0391,0.210938 0.11719,0.289062 0.0781,0.07813 0.17578,0.117188 0.28906,0.117188 z m 0,0"
         fill-opacity="1"
         fill-rule="nonzero"
         id="path323" />
      <path
         fill="#4e4d4d"
         d="m 125.65625,32.394531 v 2.683594 c 0,0.269531 -0.0625,0.472656 -0.18359,0.597656 -0.125,0.125 -0.32032,0.1875 -0.58203,0.1875 -0.29297,0 -0.50391,-0.0625 -0.62891,-0.183593 -0.12891,-0.125 -0.19141,-0.328126 -0.19141,-0.601563 v -1.199219 h -0.72265 v 1.199219 c 0,0.269531 -0.0625,0.46875 -0.1836,0.59375 -0.125,0.128906 -0.32031,0.191406 -0.58203,0.191406 -0.29297,0 -0.5039,-0.0625 -0.6289,-0.1875 -0.12891,-0.121093 -0.19141,-0.324219 -0.19141,-0.597656 v -1.199219 h -0.72266 v 1.199219 c 0,0.269531 -0.0625,0.46875 -0.18359,0.59375 -0.125,0.125 -0.32031,0.1875 -0.58203,0.1875 -0.26563,0 -0.48047,-0.05469 -0.60547,-0.167969 -0.12891,-0.109375 -0.19922,-0.285156 -0.21484,-0.53125 0.004,-0.02734 0.004,-0.07031 0.004,-0.125 0,-0.433594 -0.14062,-0.804687 -0.41797,-1.101562 -0.27734,-0.292969 -0.6289,-0.445313 -1.04297,-0.445313 -0.33984,0 -0.63281,0.117188 -0.87109,0.34375 -0.23047,0.222657 -0.40234,0.546875 -0.50391,0.964844 -0.0234,0.101563 -0.0469,0.207031 -0.0664,0.316406 -0.0234,0.109375 -0.043,0.199219 -0.0625,0.261719 -0.0156,0.0625 -0.0391,0.132812 -0.0742,0.210938 -0.0742,0.183593 -0.23047,0.273437 -0.46875,0.273437 h -0.49609 c -0.29297,0 -0.50391,-0.05859 -0.62891,-0.183594 -0.125,-0.125 -0.19141,-0.324219 -0.19141,-0.601562 v -1.195313 h -0.71875 v 1.195313 c 0,0.273437 -0.0625,0.472656 -0.1875,0.597656 -0.125,0.125 -0.32031,0.1875 -0.58203,0.1875 -0.26172,0 -0.45703,-0.0625 -0.57812,-0.1875 -0.125,-0.125 -0.1875,-0.328125 -0.1875,-0.597656 v -1.839844 h -0.71875 v 0.292969 c -0.14063,-0.01563 -0.26953,-0.02734 -0.375,-0.02734 -0.53516,0 -0.98047,0.140625 -1.32422,0.417969 -0.34375,0.277343 -0.51953,0.671875 -0.51953,1.179687 0,0.371094 0.12109,0.691406 0.35937,0.953125 0.23438,0.269531 0.55078,0.402344 0.92969,0.402344 0.51562,0 0.87109,-0.230469 1.05859,-0.679687 0.10157,0.242187 0.26953,0.4375 0.49219,0.574218 0.23828,0.144532 0.52734,0.21875 0.86328,0.21875 0.52735,0 0.92578,-0.167968 1.1875,-0.503906 0.21094,0.335938 0.58985,0.503906 1.1211,0.503906 h 0.49609 c 0.42969,0 0.75781,-0.152344 0.97656,-0.449218 0.32422,0.304687 0.69922,0.460937 1.10547,0.460937 0.21875,0 0.42969,-0.04687 0.62891,-0.144531 0.1875,-0.09375 0.35156,-0.222656 0.48047,-0.390625 0.20703,0.347656 0.58984,0.523437 1.13281,0.523437 0.54297,0 0.92187,-0.167968 1.1875,-0.503906 0.21094,0.335938 0.58984,0.503906 1.12109,0.503906 0.53125,0 0.92188,-0.167968 1.1836,-0.503906 0.21484,0.335938 0.58984,0.503906 1.125,0.503906 0.46093,0 0.82812,-0.132812 1.08984,-0.394531 0.26562,-0.265625 0.39844,-0.632813 0.39844,-1.09375 v -2.6875 h -0.72266 z m -13.99609,2.339844 c 0,0.308594 -0.0781,0.5625 -0.22657,0.75 -0.14453,0.183594 -0.34765,0.277344 -0.59375,0.277344 -0.21093,0 -0.38281,-0.0625 -0.5039,-0.195313 -0.125,-0.132812 -0.1875,-0.292968 -0.1875,-0.476562 0,-0.285156 0.10937,-0.507813 0.32422,-0.667969 0.21484,-0.160156 0.49218,-0.242187 0.82812,-0.242187 0.11719,0 0.23828,0.01172 0.35938,0.03125 z m 6.86718,0.914063 c -0.13671,0.152343 -0.30859,0.226562 -0.51562,0.226562 -0.29688,0 -0.57031,-0.144531 -0.8125,-0.425781 0.0391,-0.195313 0.0781,-0.375 0.125,-0.535157 0.0664,-0.242187 0.15234,-0.417968 0.26172,-0.53125 0.10547,-0.113281 0.24609,-0.167968 0.41015,-0.167968 0.21485,0 0.39454,0.07422 0.53125,0.230468 0.13672,0.152344 0.20704,0.351563 0.20704,0.59375 0,0.257813 -0.0703,0.464844 -0.20704,0.613282 z m 0,0"
         fill-opacity="1"
         fill-rule="nonzero"
         id="path324" />
      <path
         fill="#4e4d4d"
         d="m 127.10156,32.394531 h 0.72266 v 4.171875 h -0.72266 z m 0,0"
         fill-opacity="1"
         fill-rule="nonzero"
         id="path325" />
      <path
         fill="#4e4d4d"
         d="m 132.11719,33.1875 c 0.10937,0 0.20703,-0.03906 0.28906,-0.117188 0.0781,-0.08203 0.12109,-0.179687 0.12109,-0.292968 0,-0.113282 -0.043,-0.210938 -0.12109,-0.289063 -0.082,-0.07813 -0.17969,-0.117187 -0.28906,-0.117187 -0.10938,0 -0.20703,0.03906 -0.28516,0.117187 -0.082,0.07813 -0.12109,0.175781 -0.12109,0.289063 0,0.113281 0.0391,0.210937 0.12109,0.292968 0.0781,0.07813 0.17578,0.117188 0.28516,0.117188 z m 0,0"
         fill-opacity="1"
         fill-rule="nonzero"
         id="path326" />
      <path
         fill="#4e4d4d"
         d="m 133.67969,33.957031 c -0.27344,-0.308593 -0.6211,-0.464843 -1.04297,-0.464843 -0.45313,0 -0.81641,0.160156 -1.08203,0.480468 -0.26172,0.316406 -0.39844,0.691406 -0.39844,1.117188 0,0.398437 0.125,0.746094 0.36328,1.035156 0.24219,0.292969 0.57422,0.445312 0.99219,0.445312 0.36719,0 0.65625,-0.144531 0.86328,-0.425781 v 0.207031 c 0,0.417969 -0.11328,0.722657 -0.33594,0.902344 -0.22656,0.175782 -0.60547,0.265625 -1.1289,0.265625 -1.00391,0 -1.51172,-0.421875 -1.51172,-1.25 0,-0.179687 0.0195,-0.367187 0.0547,-0.554687 l 0.004,-0.02344 h -0.66406 l -0.004,0.01172 c -0.0625,0.269531 -0.0937,0.511719 -0.0937,0.726563 0,0.597656 0.20703,1.054687 0.6211,1.355468 0.41015,0.304688 0.94531,0.457032 1.59375,0.457032 0.70312,0 1.24609,-0.160157 1.61718,-0.480469 0.3711,-0.316407 0.5586,-0.789063 0.5586,-1.410157 v -1.15625 c 0,-0.511718 -0.14063,-0.929687 -0.41016,-1.238281 z m -0.57032,1.703125 c -0.14843,0.136719 -0.30468,0.203125 -0.47265,0.203125 -0.23438,0 -0.42578,-0.08203 -0.5625,-0.246093 -0.14063,-0.164063 -0.21094,-0.359376 -0.21094,-0.578126 0,-0.222656 0.0703,-0.414062 0.20703,-0.582031 0.13672,-0.160156 0.32422,-0.246093 0.55469,-0.246093 0.21094,0 0.39062,0.08203 0.53125,0.246093 0.14453,0.164063 0.21875,0.398438 0.22266,0.695313 -0.0352,0.203125 -0.125,0.375 -0.26954,0.507812 z m 0,0"
         fill-opacity="1"
         fill-rule="nonzero"
         id="path327" />
      <path
         fill="#4e4d4d"
         d="m 133.13281,33.1875 c 0.10938,0 0.20703,-0.03906 0.28516,-0.117188 0.082,-0.08203 0.12109,-0.179687 0.12109,-0.292968 0,-0.113282 -0.0391,-0.210938 -0.12109,-0.289063 -0.0781,-0.07813 -0.17578,-0.117187 -0.28516,-0.117187 -0.10937,0 -0.20703,0.03906 -0.28515,0.117187 -0.082,0.07813 -0.1211,0.175781 -0.1211,0.289063 0,0.113281 0.0391,0.210937 0.1211,0.292968 0.0781,0.07813 0.17578,0.117188 0.28515,0.117188 z m 0,0"
         fill-opacity="1"
         fill-rule="nonzero"
         id="path328" />
      <path
         fill="#4e4d4d"
         d="m 137.34375,33.957031 c -0.26953,-0.308593 -0.62109,-0.464843 -1.04297,-0.464843 -0.46094,0 -0.82812,0.160156 -1.09375,0.480468 -0.26172,0.316406 -0.39453,0.691406 -0.39453,1.117188 0,0.421875 0.12109,0.75 0.35937,1.042968 0.23829,0.289063 0.57813,0.4375 1.00391,0.4375 0.36719,0 0.65625,-0.144531 0.86719,-0.425781 v 0.02344 c 0,0.363281 -0.0937,0.636719 -0.26953,0.808593 -0.1836,0.171876 -0.46094,0.257813 -0.83203,0.257813 -0.16407,0 -0.33204,-0.01172 -0.5,-0.03906 l -0.0234,-0.0039 -0.004,0.675782 v 0.01953 h 0.0156 c 0.23437,0.04687 0.45703,0.07031 0.66406,0.07031 0.51953,0 0.93359,-0.15625 1.22266,-0.464843 0.28906,-0.304688 0.43359,-0.75 0.43359,-1.320313 v -0.972656 c 0,-0.515625 -0.13672,-0.929688 -0.40625,-1.238281 z m -0.55469,1.679688 c -0.14844,0.148437 -0.3125,0.226562 -0.48437,0.226562 -0.25,0 -0.44532,-0.08203 -0.58203,-0.242187 -0.13672,-0.164063 -0.20704,-0.359375 -0.20704,-0.582032 0,-0.222656 0.0703,-0.417968 0.20704,-0.582031 0.13281,-0.164062 0.32421,-0.246093 0.57031,-0.246093 0.19922,0 0.375,0.07812 0.51562,0.226562 0.14063,0.148438 0.21875,0.367188 0.23438,0.644531 -0.0195,0.214844 -0.10156,0.402344 -0.25391,0.550781 z m 0,0"
         fill-opacity="1"
         fill-rule="nonzero"
         id="path329" />
      <path
         fill="#4e4d4d"
         d="m 143.90625,33.476562 c 0.10937,0 0.20703,-0.04297 0.28906,-0.121093 0.0781,-0.08203 0.1211,-0.179688 0.1211,-0.289063 0,-0.109375 -0.043,-0.207031 -0.1211,-0.285156 -0.082,-0.08203 -0.17969,-0.121094 -0.28906,-0.121094 -0.10938,0 -0.20703,0.03906 -0.28516,0.121094 -0.082,0.07813 -0.12109,0.175781 -0.12109,0.285156 0,0.109375 0.0391,0.207032 0.12109,0.289063 0.0781,0.07813 0.17578,0.121093 0.28516,0.121093 z m 0,0"
         fill-opacity="1"
         fill-rule="nonzero"
         id="path330" />
      <path
         fill="#4e4d4d"
         d="m 149.14453,33.964844 c -0.35547,-0.3125 -0.78906,-0.46875 -1.29687,-0.46875 -0.40235,0 -0.75391,0.08984 -1.04688,0.265625 -0.26953,0.160156 -0.48437,0.390625 -0.64062,0.679687 v -0.949218 h -0.71485 v 2.371093 h -0.35547 c -0.29297,0 -0.5039,-0.0625 -0.6289,-0.1875 -0.125,-0.121093 -0.19141,-0.324219 -0.19141,-0.597656 v -1.199219 h -0.72266 v 1.199219 c 0,0.269531 -0.0586,0.46875 -0.18359,0.59375 -0.12109,0.125 -0.32031,0.1875 -0.58203,0.1875 h -0.65234 c -0.26563,0 -0.46485,-0.05078 -0.59375,-0.15625 -0.125,-0.101563 -0.19922,-0.269531 -0.21875,-0.5 v -0.06641 c 0,-0.507813 -0.19532,-0.914063 -0.58204,-1.207031 -0.38281,-0.292969 -0.91796,-0.441407 -1.58203,-0.441407 h -0.35937 v 0.722657 h 0.34765 c 0.50391,0 0.875,0.07812 1.10938,0.234374 0.23047,0.15625 0.34766,0.394532 0.34766,0.707032 0,0.257812 -0.0625,0.441406 -0.1875,0.546875 -0.1211,0.105469 -0.33594,0.160156 -0.63282,0.160156 h -1.29687 V 36.5625 h 1.30078 c 0.57031,0 0.98828,-0.160156 1.24609,-0.476562 0.21485,0.316406 0.58594,0.476562 1.10157,0.476562 h 0.65234 c 0.52734,0 0.92578,-0.167969 1.1875,-0.503906 0.21094,0.335937 0.58984,0.503906 1.12109,0.503906 h 3.10157 c 0.46093,0 0.82812,-0.128906 1.09375,-0.386719 0.26562,-0.257812 0.39843,-0.609375 0.39843,-1.046875 0,-0.464844 -0.18359,-0.859375 -0.53906,-1.171875 z m -0.37109,1.71875 c -0.1211,0.117187 -0.32032,0.179687 -0.58203,0.179687 h -2.03516 v -0.121093 c 0.0156,-0.421876 0.19141,-0.789063 0.51953,-1.082032 0.33203,-0.292968 0.72656,-0.441406 1.17188,-0.441406 0.32421,0 0.59375,0.08594 0.80078,0.253906 0.20703,0.167969 0.3125,0.390625 0.3125,0.660156 0,0.246094 -0.0625,0.429688 -0.1875,0.550782 z m 0,0"
         fill-opacity="1"
         fill-rule="nonzero"
         id="path331" />
    </g>
    <g
       id="g339">
      <path
         fill="#4e4d4d"
         d="m 70.597656,16.503906 c -1.160156,-0.96875 -2.921875,-1.535156 -5.398437,-1.730468 -1.734375,-0.125 -2.941407,-0.429688 -3.582031,-0.90625 -0.597657,-0.445313 -0.886719,-1.082032 -0.886719,-1.945313 0,-1.253906 0.386719,-2.089844 1.1875,-2.554687 0.875,-0.511719 2.210937,-0.769532 3.972656,-0.769532 0.808594,0 1.695313,0.019532 2.617187,0.207032 C 70.253906,9.15625 70.9375,9.527344 70.9375,9.527344 L 71.835938,6.710938 71.355469,6.566406 C 69.625,6.054688 67.777344,5.792969 65.863281,5.792969 c -5.492187,0 -8.273437,2.082031 -8.273437,6.183593 0,1.910157 0.601562,3.316407 1.792968,4.183594 1.148438,0.832032 2.925782,1.324219 5.441407,1.5 1.679687,0.121094 2.859375,0.476563 3.507812,1.058594 0.628907,0.566406 0.9375,1.289062 0.9375,2.210938 0,1.230468 -0.40625,2.058593 -1.242187,2.535156 C 67.113281,23.988281 65.746094,24.25 63.96875,24.25 c -1.921875,0 -3.523438,-0.230469 -4.761719,-0.691406 L 58.714844,23.375 l -0.859375,2.757812 0.472656,0.148438 c 1.691406,0.535156 3.601563,0.804688 5.664063,0.804688 5.566406,0 8.386718,-2.082032 8.386718,-6.183594 0,-1.933594 -0.601562,-3.410156 -1.78125,-4.398438 z m 0,0"
         fill-opacity="1"
         fill-rule="nonzero"
         id="path332" />
      <path
         fill="#4e4d4d"
         d="m 76.011719,6.265625 h 3 v 20.429687 h -3 z m 0,0"
         fill-opacity="1"
         fill-rule="nonzero"
         id="path333" />
      <path
         fill="#4e4d4d"
         d="M 99.074219,11.617188 C 98.6875,10.273438 98.066406,9.191406 97.222656,8.40625 96.386719,7.628906 95.382812,7.074219 94.230469,6.746094 93.113281,6.425781 91.726562,6.265625 90.109375,6.265625 h -6.488281 v 20.429687 h 6.488281 c 3.28125,0 5.714844,-0.777343 7.238281,-2.308593 1.519532,-1.53125 2.289063,-4.203125 2.289063,-7.949219 0,-1.894531 -0.1875,-3.515625 -0.5625,-4.820312 z m -3.96875,10.878906 c -0.910157,1.015625 -2.589844,1.535156 -4.992188,1.535156 H 86.621094 V 8.933594 h 3.492187 c 1.289063,0 2.328125,0.09375 3.085938,0.277344 0.707031,0.175781 1.332031,0.523437 1.859375,1.042968 0.523437,0.515625 0.894531,1.253906 1.105468,2.195313 0.222657,1.003906 0.335938,2.34375 0.335938,3.992187 0,2.980469 -0.46875,5.019532 -1.394531,6.054688 z m 0,0"
         fill-opacity="1"
         fill-rule="nonzero"
         id="path334" />
      <path
         fill="#4e4d4d"
         d="M 116.54688,8.933594 V 6.265625 h -13.33204 v 20.429687 h 3 v -8.617187 h 8 v -2.664063 h -8 V 8.933594 Z m 0,0"
         fill-opacity="1"
         fill-rule="nonzero"
         id="path335" />
    </g>
    <g
       id="g338">
      <path
         fill="#4a9a1c"
         d="m 131.98437,6.234375 -5.89843,10.230469 3.01953,5.242187 h 3.98047 l -3.01953,-5.242187 3.91796,-6.769532 h 7.80469 l 3.91406,6.769532 -3.91406,6.769531 h -1.84375 l -1.99609,3.460937 h 5.83594 L 149.6875,16.464844 143.78516,6.234375 Z m 0,0"
         fill-opacity="1"
         fill-rule="nonzero"
         id="path336" />
      <path
         fill="#4a9a1c"
         d="m 124.38672,6.234375 -5.91797,10.230469 5.91797,10.230468 h 11.80078 l 5.89844,-10.230468 -3.01953,-5.242188 h -3.9961 l 3.01953,5.242188 -3.90234,6.769531 h -7.82031 l -3.90235,-6.769531 3.90235,-6.769532 h 1.85937 l 1.98047,-3.460937 z m 0,0"
         fill-opacity="1"
         fill-rule="nonzero"
         id="path337" />
    </g>
  </g>
</svg>
